# xmcd CD database file generated by Grip 3.2.0
# 
# Track frame offsets:
#       200
#       16157
#       39107
#       56857
#       85130
#       112217
#       132702
#       150790
#       172312
# 
# Disc length: 2534 seconds
# 
# Revision: 2
# Processed by: cddbd v1.5.2PL0 Copyright (c) Steve Scherf et al.
# Submitted via: Grip 3.2.0
# 
DISCID=7209e409
DTITLE=Ismael Miranda Con Orchestra Harlow - Abran Paso
DYEAR=1981
DGENRE=Salsa
TTITLE0=Abran Paso
TTITLE1=Donde Llevas El Son
TTITLE2=Se Casa La Rumba
TTITLE3=Abandonada Fue
TTITLE4=Vengo Virao
TTITLE5=Oigan Bien Mi Guaguanco
TTITLE6=Ayer Me Entere
TTITLE7=Rise Up
TTITLE8=Dolor Y Amor
EXTD=YEAR: 1981
EXTT0=
EXTT1=
EXTT2=
EXTT3=
EXTT4=
EXTT5=
EXTT6=
EXTT7=
EXTT8=
PLAYORDER=
